<svg aria-hidden="true" style="position: absolute; width: 0; height: 0; overflow: hidden;" version="1.1" xmlns="http://www.w3.org/2000/svg" xmlns:xlink="http://www.w3.org/1999/xlink">
<defs>
<symbol id="icon-home" viewBox="0 0 34 32">
<path d="M31.854 9.489l-3.407-2.060v-6.997c0-0.221-0.179-0.4-0.4-0.4h-5.050c-0.221 0-0.4 0.179-0.4 0.4v3.46l-6.342-3.834c-0.040-0.024-0.085-0.040-0.13-0.047-0.102-0.024-0.209-0.007-0.299 0.047l-15.587 9.431c-0.12 0.072-0.193 0.202-0.193 0.342v3.3c0 0.143 0.077 0.276 0.201 0.347s0.277 0.071 0.401-0.002l2.347-1.372v16.12h-1.117c-0.221 0-0.4 0.179-0.4 0.4v2.976c0 0.221 0.179 0.4 0.4 0.4h28.335c0.221 0 0.4-0.179 0.4-0.4v-2.976c0-0.221-0.179-0.4-0.4-0.4h-1.117v-16.119l2.348 1.371c0.062 0.036 0.132 0.055 0.202 0.055 0.069 0 0.137-0.018 0.199-0.053 0.125-0.071 0.201-0.204 0.201-0.347v-3.3c0-0.14-0.073-0.27-0.193-0.342zM23.397 0.832h4.25v6.113l-4.25-2.57v-3.544zM29.814 31.2h-27.535v-2.176h27.535v2.176zM19.647 28.224h-7.2v-12.493h7.2v12.493zM28.298 28.224h-7.851v-12.893c0-0.221-0.179-0.4-0.4-0.4h-8c-0.221 0-0.4 0.179-0.4 0.4v12.893h-7.851v-16.588l12.245-7.159 12.257 7.161v16.587zM31.247 12.434l-15.004-8.766c-0.062-0.036-0.132-0.055-0.202-0.055s-0.139 0.018-0.202 0.055l-14.992 8.766v-2.377l15.194-9.193 15.206 9.193v2.378z"></path>
</symbol>
<symbol id="icon-arrow" viewBox="0 0 20 32">
<path fill="none" stroke="#fff" style="stroke: var(--color1, #fff)" stroke-linejoin="miter" stroke-linecap="butt" stroke-miterlimit="4" stroke-width="1.5238" d="M0.762 1.524l16.762 15.238-16.762 14.476"></path>
</symbol>
<symbol id="icon-search" viewBox="0 0 32 32">
<path fill="#fff" style="fill: var(--color1, #fff)" d="M29.977 31.653c0.463 0.463 1.213 0.463 1.676 0s0.463-1.213 0-1.676l-1.676 1.676zM31.653 29.977l-8.685-8.685-1.676 1.676 8.685 8.685 1.676-1.676zM24.521 13.446c0 6.117-4.959 11.075-11.075 11.075v2.37c7.426 0 13.446-6.020 13.446-13.446h-2.37zM13.446 24.521c-6.117 0-11.075-4.959-11.075-11.075h-2.37c0 7.426 6.020 13.446 13.446 13.446v-2.37zM2.37 13.446c0-6.117 4.959-11.075 11.075-11.075v-2.37c-7.426 0-13.446 6.020-13.446 13.446h2.37zM13.446 2.37c6.117 0 11.075 4.959 11.075 11.075h2.37c0-7.426-6.020-13.446-13.446-13.446v2.37z"></path>
</symbol>
<symbol id="icon-hand" viewBox="0 0 32 32">
<path fill="#fff" style="fill: var(--color1, #fff)" d="M8.88 30.070l-1.944 1.93-6.936-6.71 4.969-4.898c1.006-0.999 2.276-1.696 3.664-2.011s2.836-0.235 4.18 0.232l1.092 0.379h6.699c0.283-0 0.564 0.056 0.825 0.166s0.497 0.27 0.694 0.472c0.197 0.202 0.352 0.441 0.454 0.703s0.151 0.542 0.142 0.824c-0.032 0.556-0.279 1.078-0.69 1.457s-0.953 0.586-1.514 0.577h-4.019c-0.218 0-0.427 0.086-0.581 0.239s-0.241 0.361-0.241 0.577 0.087 0.424 0.241 0.577c0.154 0.153 0.363 0.239 0.581 0.239h4.032c0.984 0.005 1.931-0.366 2.647-1.036s1.145-1.587 1.198-2.562c0-0.016 0-0.033 0-0.052l3.73-4.17c0.379-0.436 0.913-0.711 1.49-0.767s1.155 0.111 1.611 0.467c0.226 0.186 0.412 0.415 0.548 0.673s0.217 0.541 0.241 0.831c0.024 0.29-0.012 0.582-0.104 0.859s-0.239 0.532-0.432 0.752l-7.446 8.49c-0.492 0.559-1.098 1.007-1.779 1.314s-1.42 0.464-2.168 0.463l-11.185-0.013zM24.255 11.611c0-0.411-0.165-0.806-0.457-1.097s-0.69-0.454-1.105-0.454h-2.302v-2.286c-0.018-0.399-0.191-0.775-0.482-1.050s-0.677-0.429-1.079-0.429c-0.402 0-0.788 0.154-1.079 0.429s-0.463 0.652-0.482 1.050v2.286h-2.302c-0.211-0.010-0.422 0.023-0.62 0.097s-0.379 0.186-0.531 0.331c-0.153 0.145-0.274 0.319-0.357 0.512s-0.126 0.4-0.126 0.61c0 0.21 0.043 0.417 0.126 0.61s0.205 0.367 0.357 0.512c0.153 0.145 0.333 0.257 0.531 0.331s0.409 0.107 0.62 0.097h2.302v2.286c0.019 0.399 0.191 0.775 0.482 1.051s0.677 0.429 1.079 0.429 0.788-0.154 1.079-0.429c0.291-0.276 0.463-0.652 0.482-1.050v-2.286h2.302c0.414 0 0.811-0.163 1.104-0.453s0.458-0.684 0.459-1.095zM9.278 3.017v1.685h-1.694c-0.305 0-0.598 0.12-0.814 0.335s-0.337 0.505-0.337 0.808c0 0.303 0.121 0.594 0.337 0.808s0.509 0.335 0.814 0.335h1.697v1.685c0 0.303 0.121 0.594 0.337 0.808s0.509 0.335 0.814 0.335c0.305 0 0.598-0.12 0.814-0.335s0.337-0.505 0.337-0.808v-1.691h1.687c0.305 0 0.598-0.12 0.814-0.335s0.337-0.505 0.337-0.808-0.121-0.594-0.337-0.808c-0.216-0.214-0.509-0.335-0.814-0.335h-1.697v-1.678c0-0.303-0.121-0.594-0.337-0.808s-0.509-0.335-0.814-0.335c-0.305 0-0.598 0.12-0.814 0.335s-0.337 0.505-0.337 0.808h0.007zM23.798 0c-0.262 0-0.513 0.103-0.698 0.287s-0.289 0.433-0.289 0.693v1.45h-1.46c-0.262 0-0.513 0.103-0.698 0.287s-0.289 0.433-0.289 0.693 0.104 0.509 0.289 0.693c0.185 0.184 0.436 0.287 0.698 0.287h1.46v1.45c0 0.26 0.104 0.509 0.289 0.693s0.436 0.287 0.698 0.287c0.262 0 0.513-0.103 0.698-0.287s0.289-0.433 0.289-0.693v-1.45h1.46c0.13 0 0.258-0.025 0.378-0.075s0.228-0.121 0.32-0.212c0.092-0.091 0.164-0.199 0.214-0.318s0.075-0.246 0.075-0.375-0.025-0.256-0.075-0.375c-0.050-0.119-0.122-0.227-0.214-0.318s-0.2-0.163-0.32-0.212-0.248-0.075-0.378-0.075h-1.46v-1.45c0-0.26-0.104-0.509-0.289-0.693s-0.436-0.287-0.698-0.287z"></path>
</symbol>
<symbol id="icon-house" viewBox="0 0 27 32">
<path fill="#fff" style="fill: var(--color1, #fff)" d="M21.093 32v-25.608h-21.093v25.608h4.913v-1.519c0-1.91 1.498-3.467 3.312-3.467h4.642c1.816 0 3.325 1.557 3.325 3.467v1.519h4.901zM5.824 22.845c0 0.136-0.024 0.277-0.074 0.403s-0.118 0.241-0.209 0.338c-0.091 0.096-0.201 0.169-0.32 0.221s-0.253 0.078-0.382 0.078h-2.327c-0.129 0-0.262-0.026-0.382-0.078s-0.229-0.125-0.32-0.221c-0.091-0.096-0.16-0.212-0.209-0.338s-0.074-0.266-0.074-0.403v-2.428c0-0.136 0.024-0.277 0.074-0.403s0.118-0.241 0.209-0.338c0.091-0.096 0.201-0.169 0.32-0.221s0.253-0.078 0.382-0.078h2.327c0.129 0 0.262 0.026 0.382 0.078s0.229 0.125 0.32 0.221c0.091 0.096 0.16 0.212 0.209 0.338s0.074 0.266 0.074 0.403v2.428zM5.824 15.664c0 0.136-0.024 0.277-0.074 0.403s-0.118 0.242-0.209 0.337c-0.091 0.096-0.201 0.169-0.32 0.221s-0.253 0.078-0.382 0.078h-2.327c-0.129 0-0.262-0.026-0.382-0.078s-0.229-0.125-0.32-0.221c-0.091-0.096-0.16-0.212-0.209-0.337s-0.074-0.267-0.074-0.403v-2.441c0-0.136 0.024-0.264 0.074-0.39s0.118-0.241 0.209-0.338c0.091-0.096 0.201-0.182 0.32-0.234s0.253-0.078 0.382-0.078h2.327c0.129 0 0.262 0.026 0.382 0.078s0.229 0.138 0.32 0.234c0.091 0.096 0.16 0.212 0.209 0.338s0.074 0.253 0.074 0.39v2.441zM8.398 13.106c0-0.136 0.024-0.277 0.074-0.403s0.118-0.241 0.209-0.338c0.091-0.096 0.201-0.169 0.32-0.221s0.253-0.078 0.382-0.078h2.081c0.129 0 0.262 0.026 0.382 0.078s0.229 0.125 0.32 0.221c0.091 0.096 0.16 0.212 0.209 0.338s0.074 0.266 0.074 0.403v2.181c0 0.136-0.024 0.264-0.074 0.389s-0.118 0.241-0.209 0.338c-0.091 0.096-0.201 0.181-0.32 0.233s-0.253 0.078-0.382 0.078h-2.081c-0.129 0-0.263-0.026-0.382-0.078s-0.229-0.138-0.32-0.233c-0.091-0.096-0.16-0.212-0.209-0.338s-0.074-0.253-0.074-0.389v-2.181zM12.51 22.534c0 0.136-0.024 0.264-0.074 0.39s-0.118 0.242-0.209 0.338c-0.091 0.096-0.201 0.181-0.32 0.234s-0.253 0.078-0.382 0.078h-2.143c-0.129 0-0.263-0.026-0.382-0.078s-0.229-0.137-0.32-0.234c-0.091-0.096-0.16-0.212-0.209-0.338s-0.074-0.253-0.074-0.39v-2.246c0-0.136 0.024-0.277 0.074-0.403s0.118-0.241 0.209-0.337c0.091-0.096 0.201-0.169 0.32-0.221s0.253-0.078 0.382-0.078h2.143c0.129 0 0.262 0.026 0.382 0.078s0.229 0.125 0.32 0.221c0.091 0.096 0.16 0.212 0.209 0.337s0.074 0.267 0.074 0.403v2.246zM15.268 13.223c0-0.136 0.024-0.264 0.074-0.39s0.118-0.241 0.209-0.338c0.091-0.096 0.201-0.182 0.32-0.234s0.253-0.078 0.382-0.078h2.327c0.129 0 0.262 0.026 0.382 0.078s0.229 0.138 0.32 0.234c0.091 0.096 0.16 0.212 0.209 0.338s0.074 0.253 0.074 0.39v2.441c0 0.136-0.024 0.277-0.074 0.403s-0.118 0.242-0.209 0.337c-0.091 0.096-0.201 0.169-0.32 0.221s-0.253 0.078-0.382 0.078h-2.327c-0.129 0-0.262-0.026-0.382-0.078s-0.229-0.125-0.32-0.221c-0.091-0.096-0.16-0.212-0.209-0.337s-0.074-0.267-0.074-0.403v-2.441zM15.872 23.806c-0.119-0.052-0.229-0.125-0.32-0.221s-0.16-0.212-0.209-0.338c-0.049-0.126-0.074-0.266-0.074-0.403v-2.428c0-0.136 0.024-0.277 0.074-0.403s0.118-0.241 0.209-0.338c0.091-0.096 0.201-0.169 0.32-0.221s0.253-0.078 0.382-0.078h2.327c0.129 0 0.262 0.026 0.382 0.078s0.229 0.125 0.32 0.221c0.091 0.096 0.16 0.212 0.209 0.338s0.074 0.266 0.074 0.403v2.428c0 0.136-0.024 0.277-0.074 0.403s-0.118 0.241-0.209 0.338c-0.091 0.096-0.201 0.169-0.32 0.221s-0.253 0.078-0.382 0.078h-2.327c-0.129 0-0.262-0.026-0.381-0.078z"></path>
<path fill="#fff" style="fill: var(--color1, #fff)" d="M25.54 0h-20.315l-3.906 4.313h20.301l3.92-4.313z"></path>
<path fill="#fff" style="fill: var(--color1, #fff)" d="M23.062 30.444l3.818-4.216v-24.7l-3.818 4.201v24.715z"></path>
<path fill="#fff" style="fill: var(--color1, #fff)" d="M8.223 29.087c-0.747 0-1.344 0.63-1.344 1.396v1.514h7.337v-1.514c0-0.766-0.595-1.396-1.348-1.396h-4.645z"></path>
</symbol>
</defs>
</svg>
