<svg aria-hidden="true" style="position: absolute; width: 0; height: 0; overflow: hidden;" version="1.1" xmlns="http://www.w3.org/2000/svg" xmlns:xlink="http://www.w3.org/1999/xlink">
<defs>
<symbol id="icon-home" viewBox="0 0 34 32">
<path d="M31.854 9.489l-3.407-2.060v-6.997c0-0.221-0.179-0.4-0.4-0.4h-5.050c-0.221 0-0.4 0.179-0.4 0.4v3.46l-6.342-3.834c-0.040-0.024-0.085-0.040-0.13-0.047-0.102-0.024-0.209-0.007-0.299 0.047l-15.587 9.431c-0.12 0.072-0.193 0.202-0.193 0.342v3.3c0 0.143 0.077 0.276 0.201 0.347s0.277 0.071 0.401-0.002l2.347-1.372v16.12h-1.117c-0.221 0-0.4 0.179-0.4 0.4v2.976c0 0.221 0.179 0.4 0.4 0.4h28.335c0.221 0 0.4-0.179 0.4-0.4v-2.976c0-0.221-0.179-0.4-0.4-0.4h-1.117v-16.119l2.348 1.371c0.062 0.036 0.132 0.055 0.202 0.055 0.069 0 0.137-0.018 0.199-0.053 0.125-0.071 0.201-0.204 0.201-0.347v-3.3c0-0.14-0.073-0.27-0.193-0.342zM23.397 0.832h4.25v6.113l-4.25-2.57v-3.544zM29.814 31.2h-27.535v-2.176h27.535v2.176zM19.647 28.224h-7.2v-12.493h7.2v12.493zM28.298 28.224h-7.851v-12.893c0-0.221-0.179-0.4-0.4-0.4h-8c-0.221 0-0.4 0.179-0.4 0.4v12.893h-7.851v-16.588l12.245-7.159 12.257 7.161v16.587zM31.247 12.434l-15.004-8.766c-0.062-0.036-0.132-0.055-0.202-0.055s-0.139 0.018-0.202 0.055l-14.992 8.766v-2.377l15.194-9.193 15.206 9.193v2.378z"></path>
</symbol>
<symbol id="icon-arrow" viewBox="0 0 20 32">
<path fill="none" stroke="#fff" style="stroke: var(--color1, #fff)" stroke-linejoin="miter" stroke-linecap="butt" stroke-miterlimit="4" stroke-width="1.5238" d="M0.762 1.524l16.762 15.238-16.762 14.476"></path>
</symbol>
</defs>
</svg>
